<svg id="Layer_1" data-name="Layer 1" xmlns="http://www.w3.org/2000/svg" viewBox="0 0 158.61 85.64"><defs><style>.cls-1{fill:#62893c;}.cls-2{fill:#8dc63f;}</style></defs><path class="cls-1" d="M241.62,384.77h-7.31l-13.37-35.11a20.92,20.92,0,0,1,.54,4v31.08h-8.13V329h7.31L234,363.38a21.49,21.49,0,0,1-.53-4V329h8.13Z" transform="translate(-213.35 -328.92)"/><path class="cls-1" d="M285.93,384.77h-8.26L276,374.19H265.55l-1.68,10.58h-8.23v-.14l10.8-55.71h8.77ZM274.81,367l-4.06-25.16L266.65,367Z" transform="translate(-213.35 -328.92)"/><path class="cls-1" d="M326.69,379.67q0,5.1-5.06,5.1H304.84q-5,0-5-5.1V366.38h8.34v11.37h10.2V366.81L301.63,351a5.92,5.92,0,0,1-1.82-4.46v-12.4q0-5.13,5-5.13h16.79q5.06,0,5.06,5.06v12.47h-8.34V336h-10.2V346.1l16.72,15.75a5.94,5.94,0,0,1,1.82,4.53Z" transform="translate(-213.35 -328.92)"/><path class="cls-1" d="M370.72,384.77h-8.41v-25H351v25h-8.34V329H351v23h11.3V329h8.41Z" transform="translate(-213.35 -328.92)"/><path class="cls-2" d="M226,395.46a8.56,8.56,0,0,1,2.17,6.14v3.66a8.81,8.81,0,0,1-2.4,6.55,9.29,9.29,0,0,1-6.84,2.39h-5.22v-21h6A8.42,8.42,0,0,1,226,395.46Zm-.08,6.08a6.73,6.73,0,0,0-1.62-4.79,6.19,6.19,0,0,0-4.74-1.72h-3.6v17.34h3a7,7,0,0,0,5.22-1.8,7.19,7.19,0,0,0,1.77-5.25Z" transform="translate(-213.35 -328.92)"/><path class="cls-2" d="M242.33,395v7.44h8.46v1.86h-8.46v8h9.12v1.83H240.08v-21h11.37V395Z" transform="translate(-213.35 -328.92)"/><path class="cls-2" d="M261.05,411.89l1.2-1.41a15.85,15.85,0,0,0,1.74,1.18,6.7,6.7,0,0,0,1.81.71,10.61,10.61,0,0,0,2.57.27,6.7,6.7,0,0,0,2.92-.56,4.17,4.17,0,0,0,1.76-1.41,3.11,3.11,0,0,0,.57-1.75v-.48a3,3,0,0,0-.87-2.28,8.56,8.56,0,0,0-3-1.53l-3-1a8.82,8.82,0,0,1-3.72-2.11,4.24,4.24,0,0,1-1.14-3v-.66a4.26,4.26,0,0,1,.79-2.43,5.68,5.68,0,0,1,2.39-1.91,9.1,9.1,0,0,1,3.84-.73,9.35,9.35,0,0,1,6.9,2.73l-1.2,1.32a9.23,9.23,0,0,0-2.63-1.7,8.3,8.3,0,0,0-3-.52,6.48,6.48,0,0,0-2.7.49,3.8,3.8,0,0,0-1.59,1.23,2.66,2.66,0,0,0-.51,1.52v.63a2.42,2.42,0,0,0,.91,1.86,8.52,8.52,0,0,0,3,1.47l2.73.87a10.15,10.15,0,0,1,3.81,2,4.44,4.44,0,0,1,1.32,3.42V409a4.83,4.83,0,0,1-.9,2.82,6.07,6.07,0,0,1-2.6,2,11.26,11.26,0,0,1-11.32-1.92Z" transform="translate(-213.35 -328.92)"/><path class="cls-2" d="M291,395v17.34h2.52v1.83h-7.26v-1.83h2.49V395h-2.49V393.2h7.26V395Z" transform="translate(-213.35 -328.92)"/><path class="cls-2" d="M319.23,414.2H317.4l-.21-2.22a7.23,7.23,0,0,1-2.5,1.89,7.87,7.87,0,0,1-3.35.69,7.37,7.37,0,0,1-3.67-.9,6.2,6.2,0,0,1-2.49-2.58,8.45,8.45,0,0,1-.89-4v-5.73a10.08,10.08,0,0,1,.95-4.46,6.93,6.93,0,0,1,2.74-3,8.27,8.27,0,0,1,4.29-1.06,8.67,8.67,0,0,1,4,.81,7.68,7.68,0,0,1,2.68,2.31l-1.5,1.11a6,6,0,0,0-2.1-1.8,6.83,6.83,0,0,0-3.06-.6,5.2,5.2,0,0,0-4.27,1.77,7.44,7.44,0,0,0-1.46,4.86V407a6.09,6.09,0,0,0,1.37,4.2,4.92,4.92,0,0,0,3.88,1.53,6.05,6.05,0,0,0,3.09-.77,5.92,5.92,0,0,0,2.16-2.17v-5h-5.55V403h7.74Z" transform="translate(-213.35 -328.92)"/><path class="cls-2" d="M346.26,393.2v21h-2.7L333.45,396V414.2h-2v-21h2.76l0,0,10.08,18.09V393.2Z" transform="translate(-213.35 -328.92)"/><path class="cls-2" d="M357.14,411.89l1.2-1.41a15.85,15.85,0,0,0,1.74,1.18,6.83,6.83,0,0,0,1.81.71,10.61,10.61,0,0,0,2.57.27,6.7,6.7,0,0,0,2.92-.56,4.17,4.17,0,0,0,1.76-1.41,3.11,3.11,0,0,0,.57-1.75v-.48a3,3,0,0,0-.87-2.28,8.56,8.56,0,0,0-3-1.53l-3-1a8.82,8.82,0,0,1-3.72-2.11,4.24,4.24,0,0,1-1.14-3v-.66a4.2,4.2,0,0,1,.8-2.43,5.65,5.65,0,0,1,2.38-1.91,9.1,9.1,0,0,1,3.84-.73,9.35,9.35,0,0,1,6.9,2.73l-1.2,1.32a9.09,9.09,0,0,0-2.63-1.7,8.3,8.3,0,0,0-3-.52,6.48,6.48,0,0,0-2.7.49,3.8,3.8,0,0,0-1.59,1.23,2.66,2.66,0,0,0-.51,1.52v.63a2.4,2.4,0,0,0,.92,1.86,8.37,8.37,0,0,0,3,1.47l2.73.87a10.15,10.15,0,0,1,3.81,2A4.44,4.44,0,0,1,372,408.2V409a4.83,4.83,0,0,1-.9,2.82,6.07,6.07,0,0,1-2.6,2,11.26,11.26,0,0,1-11.32-1.92Z" transform="translate(-213.35 -328.92)"/></svg>